<?xml version="1.0" standalone="no"?><!DOCTYPE svg PUBLIC "-//W3C//DTD SVG 1.1//EN" "http://www.w3.org/Graphics/SVG/1.1/DTD/svg11.dtd"><svg
        class="icon" viewBox="0 0 1024 1024" version="1.1" xmlns="http://www.w3.org/2000/svg" xmlns:xlink="http://www.w3.org/1999/xlink" width="200" height="200"><defs><style type="text/css"></style></defs><path d="M514.588577 127.99952l-437.331693 437.331693L458.668787 946.743116l437.331693-437.331693V127.99952H514.588577zM501.335293 63.99976h426.665067a31.99988 31.99988 0 0 1 31.99988 31.99988v426.665067a31.99988 31.99988 0 0 1-9.370632 22.629248l-469.331573 469.331573a31.99988 31.99988 0 0 1-45.258497 0l-426.665066-426.665066a31.99988 31.99988 0 0 1 0-45.258497l469.331573-469.331573A31.99988 31.99988 0 0 1 501.335293 63.99976z m170.666027 383.99856c-53.018468 0-95.99964-42.981172-95.99964-95.99964s42.981172-95.99964 95.99964-95.99964 95.99964 42.981172 95.99964 95.99964-42.981172 95.99964-95.99964 95.99964z m0-63.99976a31.99988 31.99988 0 1 0 0-63.99976 31.99988 31.99988 0 0 0 0 63.99976z"></path></svg>